<svg xmlns="http://www.w3.org/2000/svg" xmlns:xlink="http://www.w3.org/1999/xlink" width="150" zoomAndPan="magnify" viewBox="0 0 112.5 30.000001" height="40" preserveAspectRatio="xMidYMid meet" version="1.0"><path fill="#ffffff" d="M 9.078125 17.839844 L 4.019531 17.839844 C 3.550781 17.839844 3.152344 17.675781 2.824219 17.34375 C 2.492188 17.015625 2.328125 16.617188 2.328125 16.148438 L 3.449219 16.148438 C 3.449219 16.304688 3.507812 16.4375 3.617188 16.550781 C 3.726562 16.65625 3.863281 16.710938 4.019531 16.710938 L 9.078125 16.710938 C 9.234375 16.710938 9.367188 16.65625 9.480469 16.550781 C 9.589844 16.4375 9.644531 16.304688 9.644531 16.148438 L 9.644531 15.425781 C 9.644531 15.265625 9.589844 15.132812 9.480469 15.023438 C 9.367188 14.914062 9.234375 14.859375 9.078125 14.859375 L 4.019531 14.859375 C 3.550781 14.859375 3.152344 14.695312 2.824219 14.363281 C 2.492188 14.035156 2.328125 13.636719 2.328125 13.167969 L 2.328125 12.4375 C 2.328125 11.976562 2.492188 11.582031 2.824219 11.25 C 3.152344 10.921875 3.550781 10.753906 4.019531 10.753906 L 9.078125 10.753906 C 9.546875 10.753906 9.941406 10.921875 10.273438 11.25 C 10.601562 11.582031 10.769531 11.976562 10.769531 12.4375 L 9.644531 12.4375 C 9.644531 12.285156 9.589844 12.152344 9.480469 12.042969 C 9.367188 11.933594 9.234375 11.878906 9.078125 11.878906 L 4.019531 11.878906 C 3.863281 11.878906 3.726562 11.933594 3.617188 12.042969 C 3.507812 12.152344 3.449219 12.285156 3.449219 12.4375 L 3.449219 13.167969 C 3.449219 13.324219 3.507812 13.457031 3.617188 13.566406 C 3.726562 13.679688 3.863281 13.734375 4.019531 13.734375 L 9.078125 13.734375 C 9.546875 13.734375 9.941406 13.902344 10.273438 14.230469 C 10.601562 14.5625 10.769531 14.957031 10.769531 15.425781 L 10.769531 16.148438 C 10.769531 16.617188 10.601562 17.015625 10.273438 17.34375 C 9.941406 17.675781 9.546875 17.839844 9.078125 17.839844 Z M 9.078125 17.839844 " fill-opacity="1" fill-rule="nonzero"/><path fill="#ffffff" d="M 18.433594 17.839844 C 19.054688 17.839844 19.585938 17.621094 20.023438 17.183594 C 20.464844 16.742188 20.683594 16.210938 20.683594 15.585938 L 20.683594 10.753906 L 19.5625 10.753906 L 19.5625 15.585938 C 19.5625 15.898438 19.449219 16.164062 19.226562 16.382812 C 19.007812 16.601562 18.742188 16.710938 18.433594 16.710938 L 14.496094 16.710938 C 14.183594 16.710938 13.917969 16.601562 13.695312 16.382812 C 13.476562 16.164062 13.367188 15.898438 13.367188 15.585938 L 13.367188 10.753906 L 12.246094 10.753906 L 12.246094 15.585938 C 12.246094 16.210938 12.460938 16.742188 12.898438 17.183594 C 13.339844 17.621094 13.871094 17.839844 14.496094 17.839844 Z M 18.433594 17.839844 " fill-opacity="1" fill-rule="nonzero"/><path fill="#ffffff" d="M 28.910156 17.839844 L 23.851562 17.839844 C 23.386719 17.839844 22.984375 17.675781 22.65625 17.34375 C 22.324219 17.015625 22.164062 16.617188 22.164062 16.148438 L 23.285156 16.148438 C 23.285156 16.304688 23.339844 16.4375 23.453125 16.550781 C 23.5625 16.65625 23.695312 16.710938 23.851562 16.710938 L 28.910156 16.710938 C 29.066406 16.710938 29.199219 16.65625 29.3125 16.550781 C 29.421875 16.4375 29.480469 16.304688 29.480469 16.148438 L 29.480469 15.425781 C 29.480469 15.265625 29.421875 15.132812 29.3125 15.023438 C 29.199219 14.914062 29.066406 14.859375 28.910156 14.859375 L 23.851562 14.859375 C 23.386719 14.859375 22.984375 14.695312 22.65625 14.363281 C 22.324219 14.035156 22.164062 13.636719 22.164062 13.167969 L 22.164062 12.4375 C 22.164062 11.976562 22.324219 11.582031 22.65625 11.25 C 22.984375 10.921875 23.386719 10.753906 23.851562 10.753906 L 28.910156 10.753906 C 29.378906 10.753906 29.777344 10.921875 30.109375 11.25 C 30.4375 11.582031 30.601562 11.976562 30.601562 12.4375 L 29.480469 12.4375 C 29.480469 12.285156 29.421875 12.152344 29.3125 12.042969 C 29.199219 11.933594 29.066406 11.878906 28.910156 11.878906 L 23.851562 11.878906 C 23.695312 11.878906 23.5625 11.933594 23.453125 12.042969 C 23.339844 12.152344 23.285156 12.285156 23.285156 12.4375 L 23.285156 13.167969 C 23.285156 13.324219 23.339844 13.457031 23.453125 13.566406 C 23.5625 13.679688 23.695312 13.734375 23.851562 13.734375 L 28.910156 13.734375 C 29.378906 13.734375 29.777344 13.902344 30.109375 14.230469 C 30.4375 14.5625 30.601562 14.957031 30.601562 15.425781 L 30.601562 16.148438 C 30.601562 16.617188 30.4375 17.015625 30.109375 17.34375 C 29.777344 17.675781 29.378906 17.839844 28.910156 17.839844 Z M 28.910156 17.839844 " fill-opacity="1" fill-rule="nonzero"/><path fill="#ffffff" d="M 35.820312 17.839844 L 34.691406 17.839844 L 34.691406 11.878906 L 31.484375 11.878906 L 31.484375 10.753906 L 39.027344 10.753906 L 39.027344 11.878906 L 35.820312 11.878906 Z M 35.820312 17.839844 " fill-opacity="1" fill-rule="nonzero"/><path fill="#ffffff" d="M 48.039062 17.839844 L 40.160156 17.839844 L 40.160156 10.753906 L 48.039062 10.753906 L 48.039062 11.878906 L 41.28125 11.878906 L 41.28125 13.734375 L 47.238281 13.734375 L 47.238281 14.859375 L 41.28125 14.859375 L 41.28125 16.710938 L 48.039062 16.710938 Z M 48.039062 17.839844 " fill-opacity="1" fill-rule="nonzero"/><path fill="#ffffff" d="M 58.203125 17.839844 L 57.441406 17.839844 L 50.882812 12.5 L 50.882812 17.839844 L 49.761719 17.839844 L 49.761719 10.753906 L 50.523438 10.753906 L 57.078125 16.085938 L 57.078125 10.753906 L 58.203125 10.753906 Z M 58.203125 17.839844 " fill-opacity="1" fill-rule="nonzero"/><path fill="#ffffff" d="M 63.664062 17.839844 L 62.53125 17.839844 L 62.53125 11.878906 L 59.324219 11.878906 L 59.324219 10.753906 L 66.871094 10.753906 L 66.871094 11.878906 L 63.664062 11.878906 Z M 63.664062 17.839844 " fill-opacity="1" fill-rule="nonzero"/><path fill="#ffffff" d="M 76.441406 17.839844 L 75.320312 17.839844 L 75.320312 15.839844 C 75.320312 15.691406 75.261719 15.558594 75.152344 15.445312 C 75.039062 15.335938 74.90625 15.277344 74.75 15.277344 L 69.125 15.277344 L 69.125 17.839844 L 68 17.839844 L 68 10.753906 L 74.75 10.753906 C 75.21875 10.753906 75.617188 10.921875 75.945312 11.25 C 76.277344 11.582031 76.441406 11.976562 76.441406 12.4375 L 76.441406 13.589844 C 76.441406 14.027344 76.296875 14.402344 76.007812 14.71875 C 76.296875 15.035156 76.441406 15.410156 76.441406 15.839844 Z M 74.75 14.15625 C 74.90625 14.15625 75.039062 14.101562 75.152344 13.988281 C 75.261719 13.878906 75.320312 13.746094 75.320312 13.589844 L 75.320312 12.4375 C 75.320312 12.285156 75.261719 12.152344 75.152344 12.042969 C 75.039062 11.933594 74.90625 11.878906 74.75 11.878906 L 69.125 11.878906 L 69.125 14.15625 Z M 74.75 14.15625 " fill-opacity="1" fill-rule="nonzero"/><path fill="#ffffff" d="M 84.105469 17.839844 C 84.730469 17.839844 85.257812 17.621094 85.695312 17.183594 C 86.136719 16.742188 86.359375 16.210938 86.359375 15.585938 L 86.359375 13 C 86.359375 12.382812 86.136719 11.855469 85.695312 11.417969 C 85.257812 10.976562 84.730469 10.753906 84.105469 10.753906 L 80.167969 10.753906 C 79.546875 10.753906 79.011719 10.976562 78.574219 11.417969 C 78.136719 11.855469 77.917969 12.382812 77.917969 13 L 77.917969 15.585938 C 77.917969 16.210938 78.136719 16.742188 78.574219 17.183594 C 79.011719 17.621094 79.546875 17.839844 80.167969 17.839844 Z M 84.105469 16.710938 L 80.167969 16.710938 C 79.855469 16.710938 79.589844 16.601562 79.367188 16.382812 C 79.148438 16.164062 79.039062 15.898438 79.039062 15.585938 L 79.039062 13 C 79.039062 12.691406 79.148438 12.429688 79.367188 12.210938 C 79.589844 11.988281 79.855469 11.878906 80.167969 11.878906 L 84.105469 11.878906 C 84.417969 11.878906 84.683594 11.988281 84.902344 12.210938 C 85.125 12.429688 85.234375 12.691406 85.234375 13 L 85.234375 15.585938 C 85.234375 15.898438 85.125 16.164062 84.902344 16.382812 C 84.683594 16.601562 84.417969 16.710938 84.105469 16.710938 Z M 84.105469 16.710938 " fill-opacity="1" fill-rule="nonzero"/><path fill="#ffffff" d="M 96.523438 17.839844 L 95.761719 17.839844 L 89.203125 12.5 L 89.203125 17.839844 L 88.082031 17.839844 L 88.082031 10.753906 L 88.84375 10.753906 L 95.398438 16.085938 L 95.398438 10.753906 L 96.523438 10.753906 Z M 96.523438 17.839844 " fill-opacity="1" fill-rule="nonzero"/><path fill="#ffffff" d="M 99.617188 17.839844 L 99.617188 10.753906 L 98.492188 10.753906 L 98.492188 17.839844 Z M 99.617188 17.839844 " fill-opacity="1" fill-rule="nonzero"/><path fill="#ffffff" d="M 107.535156 17.839844 C 108.15625 17.839844 108.6875 17.621094 109.125 17.183594 C 109.566406 16.742188 109.785156 16.210938 109.785156 15.585938 L 108.664062 15.585938 C 108.664062 15.898438 108.550781 16.164062 108.328125 16.382812 C 108.109375 16.601562 107.84375 16.710938 107.535156 16.710938 L 103.597656 16.710938 C 103.285156 16.710938 103.019531 16.601562 102.796875 16.382812 C 102.578125 16.164062 102.46875 15.898438 102.46875 15.585938 L 102.46875 13 C 102.46875 12.691406 102.578125 12.429688 102.796875 12.210938 C 103.019531 11.988281 103.285156 11.878906 103.597656 11.878906 L 107.535156 11.878906 C 107.84375 11.878906 108.109375 11.988281 108.328125 12.210938 C 108.550781 12.429688 108.664062 12.691406 108.664062 13 L 109.785156 13 C 109.785156 12.382812 109.566406 11.855469 109.125 11.417969 C 108.6875 10.976562 108.15625 10.753906 107.535156 10.753906 L 103.597656 10.753906 C 102.972656 10.753906 102.441406 10.976562 102 11.417969 C 101.5625 11.855469 101.34375 12.382812 101.34375 13 L 101.34375 15.585938 C 101.34375 16.210938 101.5625 16.742188 102 17.183594 C 102.441406 17.621094 102.972656 17.839844 103.597656 17.839844 Z M 107.535156 17.839844 " fill-opacity="1" fill-rule="nonzero"/></svg>