<svg xmlns="http://www.w3.org/2000/svg" xmlns:xlink="http://www.w3.org/1999/xlink" width="500" zoomAndPan="magnify" viewBox="0 0 375 374.999991" height="500" preserveAspectRatio="xMidYMid meet" version="1.0"><defs><g/><clipPath id="id1"><path d="M 180.734375 105.046875 L 191.234375 105.046875 L 191.234375 115.546875 L 180.734375 115.546875 Z M 180.734375 105.046875 " clip-rule="nonzero"/></clipPath><clipPath id="id2"><path d="M 254.730469 179.015625 L 265.230469 179.015625 L 265.230469 189.515625 L 254.730469 189.515625 Z M 254.730469 179.015625 " clip-rule="nonzero"/></clipPath><clipPath id="id3"><path d="M 181.097656 256.558594 L 190.847656 256.558594 L 190.847656 266.308594 L 181.097656 266.308594 Z M 181.097656 256.558594 " clip-rule="nonzero"/></clipPath><clipPath id="id4"><path d="M 106.871094 179.015625 L 117.371094 179.015625 L 117.371094 189.515625 L 106.871094 189.515625 Z M 106.871094 179.015625 " clip-rule="nonzero"/></clipPath><clipPath id="id5"><path d="M 136.871094 207.039062 L 145.121094 207.039062 L 145.121094 215.289062 L 136.871094 215.289062 Z M 136.871094 207.039062 " clip-rule="nonzero"/></clipPath><clipPath id="id6"><path d="M 208.757812 135.316406 L 217.007812 135.316406 L 217.007812 143.566406 L 208.757812 143.566406 Z M 208.757812 135.316406 " clip-rule="nonzero"/></clipPath><clipPath id="id7"><path d="M 225.835938 158.851562 L 234.085938 158.851562 L 234.085938 167.101562 L 225.835938 167.101562 Z M 225.835938 158.851562 " clip-rule="nonzero"/></clipPath><clipPath id="id8"><path d="M 159.625 220.9375 L 167.875 220.9375 L 167.875 229.1875 L 159.625 229.1875 Z M 159.625 220.9375 " clip-rule="nonzero"/></clipPath></defs><path stroke-linecap="butt" transform="matrix(0.000000000000000137, -2.239142, 2.192893, 0.000000000000000134, 140.857642, 207.033267)" fill="none" stroke-linejoin="miter" d="M -0.000843647 0.00079044 L 9.714443 0.00079044 " stroke="#ffffff" stroke-width="1" stroke-opacity="1" stroke-miterlimit="4"/><path stroke-linecap="butt" transform="matrix(0.000000000000000139, 2.264744, -2.192893, 0.000000000000000134, 163.722649, 184.313894)" fill="none" stroke-linejoin="miter" d="M -0.000615653 -0.00000332945 L 19.874353 -0.00000332945 " stroke="#ffffff" stroke-width="1" stroke-opacity="1" stroke-miterlimit="4"/><g clip-path="url(#id1)"><path fill="#ffffff" d="M 185.984375 105.046875 C 183.085938 105.046875 180.734375 107.398438 180.734375 110.296875 C 180.734375 113.195312 183.085938 115.546875 185.984375 115.546875 C 188.882812 115.546875 191.234375 113.195312 191.234375 110.296875 C 191.234375 107.398438 188.882812 105.046875 185.984375 105.046875 " fill-opacity="1" fill-rule="nonzero"/></g><g fill="#ffffff" fill-opacity="1"><g transform="translate(117.46756, 171.675692)"><g><path d="M 46.84375 0 L 14.4375 0 C 11.707031 0 9.375 -0.960938 7.4375 -2.890625 C 5.507812 -4.828125 4.546875 -7.160156 4.546875 -9.890625 L 9.953125 -9.890625 C 9.953125 -8.648438 10.390625 -7.59375 11.265625 -6.71875 C 12.148438 -5.84375 13.207031 -5.40625 14.4375 -5.40625 L 46.84375 -5.40625 C 48.070312 -5.40625 49.125 -5.84375 50 -6.71875 C 50.882812 -7.59375 51.328125 -8.648438 51.328125 -9.890625 L 51.328125 -14.5625 C 51.328125 -15.789062 50.882812 -16.84375 50 -17.71875 C 49.125 -18.601562 48.070312 -19.046875 46.84375 -19.046875 L 14.4375 -19.046875 C 11.707031 -19.046875 9.375 -20.007812 7.4375 -21.9375 C 5.507812 -23.875 4.546875 -26.207031 4.546875 -28.9375 L 4.546875 -33.609375 C 4.546875 -36.335938 5.507812 -38.664062 7.4375 -40.59375 C 9.375 -42.53125 11.707031 -43.5 14.4375 -43.5 L 46.84375 -43.5 C 49.570312 -43.5 51.898438 -42.53125 53.828125 -40.59375 C 55.753906 -38.664062 56.71875 -36.335938 56.71875 -33.609375 L 51.328125 -33.609375 C 51.328125 -34.847656 50.882812 -35.90625 50 -36.78125 C 49.125 -37.65625 48.070312 -38.09375 46.84375 -38.09375 L 14.4375 -38.09375 C 13.207031 -38.09375 12.148438 -37.65625 11.265625 -36.78125 C 10.390625 -35.90625 9.953125 -34.847656 9.953125 -33.609375 L 9.953125 -28.9375 C 9.953125 -27.707031 10.390625 -26.648438 11.265625 -25.765625 C 12.148438 -24.890625 13.207031 -24.453125 14.4375 -24.453125 L 46.84375 -24.453125 C 49.570312 -24.453125 51.898438 -23.484375 53.828125 -21.546875 C 55.753906 -19.617188 56.71875 -17.289062 56.71875 -14.5625 L 56.71875 -9.890625 C 56.71875 -7.160156 55.753906 -4.828125 53.828125 -2.890625 C 51.898438 -0.960938 49.570312 0 46.84375 0 Z M 46.84375 0 "/></g></g></g><g fill="#ffffff" fill-opacity="1"><g transform="translate(198.188547, 250.565842)"><g><path d="M 30.625 0 L 24.65625 0 L 24.65625 -42.09375 L 1 -42.09375 L 1 -48.046875 L 54.28125 -48.046875 L 54.28125 -42.09375 L 30.625 -42.09375 Z M 30.625 0 "/></g></g></g><path stroke-linecap="butt" transform="matrix(1.5027, 0.000000000000000165, -0.000000000000000142, 1.297297, 110.296704, 184.959597)" fill="none" stroke-linejoin="miter" d="M 0.000114023 0.00103295 L 99.820436 0.00103295 " stroke="#ffffff" stroke-width="1" stroke-opacity="1" stroke-miterlimit="4"/><path stroke-linecap="butt" transform="matrix(0.000000000000000092, -1.5027, 1.297297, 0.000000000000000079, 185.811335, 261.489943)" fill="none" stroke-linejoin="miter" d="M 0.00110573 0.000897637 L 99.821428 0.000897637 " stroke="#ffffff" stroke-width="1" stroke-opacity="1" stroke-miterlimit="4"/><path stroke-linecap="butt" transform="matrix(2.239142, 0.000000000000000009, -0.000000000000000008, 2.192893, 186.897868, 139.30206)" fill="none" stroke-linejoin="miter" d="M 0.000254237 -0.00058334 L 9.715541 -0.00058334 " stroke="#ffffff" stroke-width="1" stroke-opacity="1" stroke-miterlimit="4"/><path stroke-linecap="butt" transform="matrix(2.264744, 0.000000000000000009, -0.000000000000000008, 2.192893, 185.16197, 162.834949)" fill="none" stroke-linejoin="miter" d="M -0.000800837 0.000450634 L 19.874167 0.000450634 " stroke="#ffffff" stroke-width="1" stroke-opacity="1" stroke-miterlimit="4"/><g clip-path="url(#id2)"><path fill="#ffffff" d="M 259.980469 179.015625 C 257.082031 179.015625 254.730469 181.367188 254.730469 184.265625 C 254.730469 187.164062 257.082031 189.515625 259.980469 189.515625 C 262.878906 189.515625 265.230469 187.164062 265.230469 184.265625 C 265.230469 181.367188 262.878906 179.015625 259.980469 179.015625 " fill-opacity="1" fill-rule="nonzero"/></g><g clip-path="url(#id3)"><path fill="#ffffff" d="M 185.972656 256.558594 C 183.28125 256.558594 181.097656 258.742188 181.097656 261.433594 C 181.097656 264.125 183.28125 266.308594 185.972656 266.308594 C 188.664062 266.308594 190.847656 264.125 190.847656 261.433594 C 190.847656 258.742188 188.664062 256.558594 185.972656 256.558594 " fill-opacity="1" fill-rule="nonzero"/></g><g clip-path="url(#id4)"><path fill="#ffffff" d="M 112.121094 179.015625 C 109.222656 179.015625 106.871094 181.367188 106.871094 184.265625 C 106.871094 187.164062 109.222656 189.515625 112.121094 189.515625 C 115.019531 189.515625 117.371094 187.164062 117.371094 184.265625 C 117.371094 181.367188 115.019531 179.015625 112.121094 179.015625 " fill-opacity="1" fill-rule="nonzero"/></g><g clip-path="url(#id5)"><path fill="#ffffff" d="M 140.996094 207.039062 C 138.71875 207.039062 136.871094 208.886719 136.871094 211.164062 C 136.871094 213.441406 138.71875 215.289062 140.996094 215.289062 C 143.273438 215.289062 145.121094 213.441406 145.121094 211.164062 C 145.121094 208.886719 143.273438 207.039062 140.996094 207.039062 " fill-opacity="1" fill-rule="nonzero"/></g><g clip-path="url(#id6)"><path fill="#ffffff" d="M 212.882812 135.316406 C 210.605469 135.316406 208.757812 137.164062 208.757812 139.441406 C 208.757812 141.71875 210.605469 143.566406 212.882812 143.566406 C 215.160156 143.566406 217.007812 141.71875 217.007812 139.441406 C 217.007812 137.164062 215.160156 135.316406 212.882812 135.316406 " fill-opacity="1" fill-rule="nonzero"/></g><g clip-path="url(#id7)"><path fill="#ffffff" d="M 229.960938 158.851562 C 227.679688 158.851562 225.835938 160.695312 225.835938 162.976562 C 225.835938 165.253906 227.679688 167.101562 229.960938 167.101562 C 232.238281 167.101562 234.085938 165.253906 234.085938 162.976562 C 234.085938 160.695312 232.238281 158.851562 229.960938 158.851562 " fill-opacity="1" fill-rule="nonzero"/></g><g clip-path="url(#id8)"><path fill="#ffffff" d="M 163.75 220.9375 C 161.472656 220.9375 159.625 222.785156 159.625 225.0625 C 159.625 227.339844 161.472656 229.1875 163.75 229.1875 C 166.027344 229.1875 167.875 227.339844 167.875 225.0625 C 167.875 222.785156 166.027344 220.9375 163.75 220.9375 " fill-opacity="1" fill-rule="nonzero"/></g></svg>